<?xml version="1.0" encoding="UTF-8" standalone="no"?>
<!-- Uploaded to: SVG Repo, www.svgrepo.com, Generator: SVG Repo Mixer Tools -->

<svg
   width="700"
   height="700"
   viewBox="0 0 28 28"
   id="Camada_1"
   version="1.1"
   xml:space="preserve"
   sodipodi:docname="GithubIcon.svg"
   inkscape:version="1.3 (0e150ed6c4, 2023-07-21)"
   xmlns:inkscape="http://www.inkscape.org/namespaces/inkscape"
   xmlns:sodipodi="http://sodipodi.sourceforge.net/DTD/sodipodi-0.dtd"
   xmlns="http://www.w3.org/2000/svg"
   xmlns:svg="http://www.w3.org/2000/svg"><defs
   id="defs4">&#10;&#10;&#10;&#10;&#10;&#10;&#10;&#10;&#10;	&#10;&#10;	&#10;</defs><sodipodi:namedview
   id="namedview4"
   pagecolor="#505050"
   bordercolor="#ffffff"
   borderopacity="1"
   inkscape:showpageshadow="0"
   inkscape:pageopacity="0"
   inkscape:pagecheckerboard="1"
   inkscape:deskcolor="#505050"
   inkscape:zoom="0.98375"
   inkscape:cx="389.32656"
   inkscape:cy="378.65311"
   inkscape:window-width="1920"
   inkscape:window-height="1001"
   inkscape:window-x="-9"
   inkscape:window-y="-9"
   inkscape:window-maximized="1"
   inkscape:current-layer="Camada_1"
   showguides="true" />&#10;&#10;<style
   type="text/css"
   id="style1">&#10;	.st0{fill:#FFFFFF;}&#10;</style>&#10;&#10;<path
   id="path1"
   style="fill:#000000"
   d="M 4 0 C 1.8000195 0 -3.7895575e-16 1.8000198 0 4 L 0 24 C 0 26.199982 1.8000195 28 4 28 L 24 28 C 26.199982 28 28 26.199982 28 24 L 28 4 C 28 1.8000198 26.199982 0 24 0 L 4 0 z M 21.197031 4.0015625 C 21.337541 4.0075951 21.405625 4.0290625 21.405625 4.0290625 C 22.110652 5.8148879 21.661572 7.1493538 21.533516 7.4720313 C 22.366618 8.3756341 22.857734 9.5377098 22.857734 10.957813 C 22.857734 15.949829 19.846243 17.04698 16.962734 17.369922 C 17.432748 17.778716 17.838281 18.553059 17.838281 19.779609 C 17.838281 21.522392 17.817187 22.921331 17.817187 23.351484 C 17.817188 23.424409 17.830738 23.4995 17.853438 23.5725 C 16.799838 23.848723 15.714827 23.9924 14.624453 24 C 13.534079 23.992388 12.449067 23.848723 11.395469 23.5725 C 11.418139 23.49956 11.43125 23.424324 11.43125 23.351484 C 11.43125 23.050188 11.410078 22.017285 11.410078 20.94125 C 7.8215313 21.715996 7.0739063 19.392422 7.0739063 19.392422 C 6.4972298 17.88623 5.6429688 17.49875 5.6429688 17.49875 C 4.4684389 16.702616 5.7285878 16.702734 5.7285937 16.702734 C 7.0314534 16.788838 7.7149219 18.037031 7.7149219 18.037031 C 8.8680557 20.016408 10.726515 19.456833 11.474063 19.1125 C 11.580724 18.273328 11.922615 17.692602 12.285703 17.369922 C 9.4235846 17.068629 6.4123437 15.949828 6.4123437 10.957813 C 6.4123437 9.5377098 6.9243224 8.3756338 7.7360156 7.4720313 C 7.6079538 7.1493409 7.1594538 5.8148879 7.8644531 4.0290625 C 7.8644531 4.0290625 7.9323938 4.007935 8.0728906 4.001875 C 8.4943622 3.9837046 9.5676018 4.1045939 11.409609 5.3633594 C 12.461181 5.0788334 13.545616 4.9341106 14.635 4.9328906 C 15.724234 4.9328906 16.834661 5.0837188 17.86 5.3633594 C 19.702201 4.1045953 20.775501 3.9834646 21.197031 4.0015625 z " />&#10;&#10;&#10;&#10;<g
   id="g17"
   transform="matrix(0.11037223,0,0,0.11037223,19.755824,4.6967326)"><g
     id="g2">&#10;</g><g
     id="g3">&#10;</g><g
     id="g4">&#10;</g><g
     id="g5">&#10;</g><g
     id="g6">&#10;</g><g
     id="g7">&#10;</g><g
     id="g8">&#10;</g><g
     id="g9">&#10;</g><g
     id="g10">&#10;</g><g
     id="g11">&#10;</g><g
     id="g12">&#10;</g><g
     id="g13">&#10;</g><g
     id="g14">&#10;</g><g
     id="g15">&#10;</g><g
     id="g16">&#10;</g></g></svg>
