<?xml version="1.0" encoding="UTF-8" standalone="no"?>
<!-- Created with Inkscape (http://www.inkscape.org/) -->

<svg
   width="700mm"
   height="700mm"
   viewBox="0 0 700 700"
   version="1.1"
   id="svg1"
   xml:space="preserve"
   inkscape:version="1.3 (0e150ed6c4, 2023-07-21)"
   sodipodi:docname="RocketTopIcon.svg"
   xmlns:inkscape="http://www.inkscape.org/namespaces/inkscape"
   xmlns:sodipodi="http://sodipodi.sourceforge.net/DTD/sodipodi-0.dtd"
   xmlns="http://www.w3.org/2000/svg"
   xmlns:svg="http://www.w3.org/2000/svg"><sodipodi:namedview
     id="namedview1"
     pagecolor="#505050"
     bordercolor="#ffffff"
     borderopacity="1"
     inkscape:showpageshadow="0"
     inkscape:pageopacity="0"
     inkscape:pagecheckerboard="1"
     inkscape:deskcolor="#505050"
     inkscape:document-units="mm"
     inkscape:zoom="0.17527532"
     inkscape:cx="1506.2018"
     inkscape:cy="1412.0642"
     inkscape:window-width="1920"
     inkscape:window-height="1001"
     inkscape:window-x="-9"
     inkscape:window-y="-9"
     inkscape:window-maximized="1"
     inkscape:current-layer="layer1" /><defs
     id="defs1">&#10;	&#10;&#10;		&#10;	&#10;			&#10;			&#10;		</defs><g
     inkscape:label="Layer 1"
     inkscape:groupmode="layer"
     id="layer1"><path
       id="path1"
       style="fill:#000058;fill-opacity:1;stroke-width:1.33579"
       d="M 349.99983 0 A 350 350 0 0 0 0 349.99983 A 350 350 0 0 0 349.99983 700.00017 A 350 350 0 0 0 700.00017 349.99983 A 350 350 0 0 0 349.99983 0 z M 348.57821 100.0001 C 351.74865 100.0001 354.91903 100.93325 357.65724 102.79941 C 361.50403 105.424 452.10311 168.25216 470.80847 272.82779 C 475.95831 301.61563 474.18751 335.33654 468.91143 369.11597 C 478.73802 373.55873 497.55817 384.58918 513.19451 408.58746 C 540.13052 449.9258 544.65224 508.68697 526.63711 583.23572 C 525.38964 588.39732 521.68244 592.61125 516.72453 594.50686 C 514.86257 595.2173 512.91286 595.56726 510.97346 595.56726 C 507.74957 595.56726 504.55104 594.59933 501.82208 592.71886 L 421.0327 537.00185 C 418.60172 543.12305 416.99217 546.94448 416.59318 547.88387 C 414.06456 553.83335 408.22449 557.69516 401.76152 557.69516 L 364.69402 557.69516 L 364.69402 583.88374 C 364.69402 592.78441 357.47887 600.00007 348.57821 600.00007 C 339.67755 600.00007 332.46188 592.78441 332.46188 583.88374 L 332.46188 557.69516 L 295.39437 557.69516 C 288.93143 557.69516 283.09134 553.83335 280.56272 547.88387 C 280.1974 547.02529 278.82362 543.76738 276.73608 538.54181 L 198.1786 592.71886 C 195.44965 594.59933 192.25281 595.56726 189.02722 595.56726 C 187.08783 595.56726 185.14031 595.21898 183.27667 594.50686 C 178.31876 592.61125 174.60987 588.39563 173.3641 583.23572 C 155.34727 508.68529 159.87068 449.92425 186.80669 408.58591 C 201.13831 386.59437 218.14013 375.49304 228.44652 370.37016 C 223.01724 336.17153 221.13687 301.97099 226.34897 272.82624 C 245.05267 168.2523 335.65185 105.42231 339.49866 102.79941 C 342.23686 100.93325 345.40775 100.0001 348.57821 100.0001 z M 348.57821 136.39167 C 338.15566 144.85969 320.2615 160.82475 302.91639 182.99813 L 394.2395 182.99813 C 376.89778 160.8298 359.00581 144.86305 348.57821 136.39167 z M 285.09836 208.7826 C 272.95695 228.87685 262.76478 252.29093 258.07624 278.50135 C 243.76648 358.50126 291.82038 488.87382 306.25469 525.46302 L 332.46188 525.46302 L 332.46188 397.7442 C 332.46188 388.84354 339.67755 381.62787 348.57821 381.62787 C 357.47887 381.62787 364.69402 388.84354 364.69402 397.7442 L 364.69402 525.46302 L 390.89449 525.46302 C 405.32713 488.85194 453.36932 358.40867 439.07811 278.50135 C 434.39123 252.29093 424.19737 228.87685 412.05599 208.7826 L 285.09836 208.7826 z M 348.57821 220.87024 C 378.79366 220.87024 403.37279 245.45106 403.37279 275.66483 C 403.37279 305.8786 378.79198 330.45942 348.57821 330.45942 C 318.36444 330.45942 293.7831 305.8786 293.7831 275.66483 C 293.7831 245.45106 318.36444 220.87024 348.57821 220.87024 z M 348.57821 246.65626 C 332.58327 246.65626 319.56964 259.66989 319.56964 275.66483 C 319.56964 291.65975 332.58327 304.67339 348.57821 304.67339 C 364.57313 304.67339 377.58625 291.65975 377.58625 275.66483 C 377.58625 259.66989 364.57313 246.65626 348.57821 246.65626 z M 462.68752 402.27777 C 454.14882 441.67671 442.26975 478.90745 432.694 505.89057 L 500.22941 552.46654 C 518.59978 450.9616 481.3912 414.07069 462.68752 402.27777 z M 234.82856 403.92728 C 215.54238 417.333 182.18412 455.2865 199.77334 552.46654 L 265.02568 507.46463 C 255.48866 480.73571 243.51036 443.49121 234.82856 403.92728 z " /></g></svg>
