<?xml version="1.0" encoding="UTF-8" standalone="no"?>
<!-- Uploaded to: SVG Repo, www.svgrepo.com, Generator: SVG Repo Mixer Tools -->

<svg
   width="700"
   height="700"
   viewBox="0 0 28 28"
   id="Camada_1"
   version="1.1"
   xml:space="preserve"
   sodipodi:docname="SchoolIcon.svg"
   inkscape:version="1.3 (0e150ed6c4, 2023-07-21)"
   xmlns:inkscape="http://www.inkscape.org/namespaces/inkscape"
   xmlns:sodipodi="http://sodipodi.sourceforge.net/DTD/sodipodi-0.dtd"
   xmlns="http://www.w3.org/2000/svg"
   xmlns:svg="http://www.w3.org/2000/svg"><defs
   id="defs4">&#10;&#10;&#10;&#10;&#10;&#10;&#10;&#10;&#10;	&#10;&#10;	&#10;</defs><sodipodi:namedview
   id="namedview4"
   pagecolor="#505050"
   bordercolor="#ffffff"
   borderopacity="1"
   inkscape:showpageshadow="0"
   inkscape:pageopacity="0"
   inkscape:pagecheckerboard="1"
   inkscape:deskcolor="#505050"
   inkscape:zoom="0.98375"
   inkscape:cx="389.32656"
   inkscape:cy="344.09149"
   inkscape:window-width="1920"
   inkscape:window-height="1001"
   inkscape:window-x="-9"
   inkscape:window-y="-9"
   inkscape:window-maximized="1"
   inkscape:current-layer="Camada_1"
   showguides="true" />&#10;&#10;<style
   type="text/css"
   id="style1">&#10;	.st0{fill:#FFFFFF;}&#10;</style>&#10;&#10;<path
   id="path1"
   style="fill:#000000"
   d="M 4 0 C 1.8000112 0 0 1.800011 0 4 L 0 24 C 0 26.19999 1.8000112 28 4 28 L 24 28 C 26.19999 28 28 26.19999 28 24 L 28 4 C 28 1.800011 26.19999 0 24 0 L 4 0 z M 14.000078 7.7214844 C 14.078277 7.7214844 14.156532 7.7343155 14.231641 7.7599219 L 23.514375 10.924375 C 23.804874 11.023379 24.00011 11.296336 24 11.603281 C 24.00011 11.910116 23.804998 12.183197 23.514609 12.282422 L 22.277891 12.704922 L 22.277891 14.810391 C 22.445656 14.941623 22.553828 15.145426 22.553828 15.375 L 22.553828 17.125 C 22.553828 17.521236 22.232642 17.842422 21.836406 17.842422 C 21.44017 17.842422 21.118984 17.521236 21.118984 17.125 L 21.118984 15.375 C 21.118984 15.145536 21.227156 14.941733 21.394922 14.810391 L 21.394922 13.006563 L 19.905078 13.515547 L 19.905078 17.343594 C 19.905078 17.526811 19.835075 17.703109 19.709141 17.836328 C 18.221324 19.411228 16.209159 20.278516 14.043437 20.278516 C 11.856193 20.278516 9.7561609 19.350771 8.2820312 17.733047 C 8.1616153 17.600931 8.0949219 17.428568 8.0949219 17.249766 L 8.0949219 13.510078 L 4.4864062 12.282578 C 4.1955757 12.183685 4.0001104 11.910759 4 11.603594 C 3.9998896 11.296539 4.19536 11.023489 4.4858594 10.924375 L 13.768594 7.7599219 C 13.843702 7.7343155 13.921879 7.7214844 14.000078 7.7214844 z M 14.000078 9.1967969 L 6.9429688 11.602578 L 14.020234 14.009922 L 21.061563 11.604141 L 14.000078 9.1967969 z M 9.5297656 13.998125 L 9.5297656 16.963281 C 10.719798 18.161481 12.349524 18.843594 14.043516 18.843594 C 15.717199 18.843594 17.278404 18.208705 18.470313 17.049688 L 18.470469 17.049688 L 18.470469 14.005781 L 14.252813 15.446797 C 14.177649 15.472514 14.099145 15.485313 14.020781 15.485313 C 13.942748 15.485312 13.864708 15.472605 13.789766 15.447109 L 9.5297656 13.998125 z " />&#10;&#10;&#10;&#10;<g
   id="g17"
   transform="matrix(0.11037223,0,0,0.11037223,19.755824,4.6967326)"><g
     id="g2">&#10;</g><g
     id="g3">&#10;</g><g
     id="g4">&#10;</g><g
     id="g5">&#10;</g><g
     id="g6">&#10;</g><g
     id="g7">&#10;</g><g
     id="g8">&#10;</g><g
     id="g9">&#10;</g><g
     id="g10">&#10;</g><g
     id="g11">&#10;</g><g
     id="g12">&#10;</g><g
     id="g13">&#10;</g><g
     id="g14">&#10;</g><g
     id="g15">&#10;</g><g
     id="g16">&#10;</g></g></svg>
