<?xml version="1.0" encoding="UTF-8" standalone="no"?>
<!-- Created with Inkscape (http://www.inkscape.org/) -->

<svg
   width="700mm"
   height="700mm"
   viewBox="0 0 700 700"
   version="1.1"
   id="svg1"
   xml:space="preserve"
   sodipodi:docname="SunIcon.svg"
   inkscape:version="1.3 (0e150ed6c4, 2023-07-21)"
   xmlns:inkscape="http://www.inkscape.org/namespaces/inkscape"
   xmlns:sodipodi="http://sodipodi.sourceforge.net/DTD/sodipodi-0.dtd"
   xmlns="http://www.w3.org/2000/svg"
   xmlns:svg="http://www.w3.org/2000/svg"><sodipodi:namedview
     id="namedview1"
     pagecolor="#505050"
     bordercolor="#ffffff"
     borderopacity="1"
     inkscape:showpageshadow="0"
     inkscape:pageopacity="0"
     inkscape:pagecheckerboard="1"
     inkscape:deskcolor="#505050"
     inkscape:document-units="mm"
     inkscape:zoom="0.17527532"
     inkscape:cx="616.17345"
     inkscape:cy="847.23849"
     inkscape:window-width="1920"
     inkscape:window-height="1001"
     inkscape:window-x="-9"
     inkscape:window-y="-9"
     inkscape:window-maximized="1"
     inkscape:current-layer="layer1" /><defs
     id="defs1" /><g
     inkscape:label="Layer 1"
     inkscape:groupmode="layer"
     id="layer1"><path
       id="path1"
       style="fill:#ffffff;stroke-width:0.375725"
       d="M 349.99983 0 A 350 350 0 0 0 0 349.99983 A 350 350 0 0 0 349.99983 700.00017 A 350 350 0 0 0 700.00017 349.99983 A 350 350 0 0 0 349.99983 0 z M 349.99983 100.0001 C 362.49979 100.0001 370.83318 108.33347 370.83318 120.83345 L 370.83318 162.50016 C 370.83318 175.00014 362.49979 183.33351 349.99983 183.33351 C 337.49985 183.33351 329.16647 175.00014 329.16647 162.50016 L 329.16647 120.83345 C 329.16647 108.33347 337.49985 100.0001 349.99983 100.0001 z M 189.58326 168.74991 C 194.79158 168.74991 200.0002 170.83352 204.16687 175.00017 L 233.33356 204.16687 C 241.66688 212.50018 241.66688 225.00025 233.33356 233.33356 C 225.00025 241.66688 212.50018 241.66688 204.16687 233.33356 L 175.00017 204.16687 C 166.66686 195.83353 166.66686 183.33348 175.00017 175.00017 C 179.16683 170.83352 184.37494 168.74991 189.58326 168.74991 z M 510.41691 168.74991 C 515.62522 168.74991 520.83334 170.83352 525 175.00017 C 533.33332 183.33348 533.33332 195.83353 525 204.16687 L 495.8333 233.33356 C 487.49998 241.66688 474.99992 241.66688 466.66661 233.33356 C 458.33327 225.00025 458.33327 212.50018 466.66661 204.16687 L 495.8333 175.00017 C 499.99996 170.83352 505.20858 168.74991 510.41691 168.74991 z M 340.65879 225.34955 A 125 125 0 0 1 474.99995 349.99983 A 125 125 0 0 1 225.00022 349.99983 A 125 125 0 0 1 340.65879 225.34955 z M 120.83345 329.16647 L 162.50016 329.16647 C 175.00014 329.16647 183.33351 337.49985 183.33351 349.99983 C 183.33351 362.49979 175.00014 370.83318 162.50016 370.83318 L 120.83345 370.83318 C 108.33347 370.83318 100.0001 362.49979 100.0001 349.99983 C 100.0001 337.49985 108.33347 329.16647 120.83345 329.16647 z M 537.50001 329.16647 L 579.16672 329.16647 C 591.66668 329.16647 600.00007 337.49985 600.00007 349.99983 C 600.00007 362.49979 591.66668 370.83318 579.16672 370.83318 L 537.50001 370.83318 C 525.00003 370.83318 516.66665 362.49979 516.66665 349.99983 C 516.66665 337.49985 525.00003 329.16647 537.50001 329.16647 z M 218.74996 460.41686 C 223.95827 460.41686 229.16691 462.49994 233.33356 466.66661 C 241.66688 474.99992 241.66688 487.49998 233.33356 495.8333 L 204.16687 525 C 195.83353 533.33332 183.33348 533.33332 175.00017 525 C 166.66686 516.66667 166.66686 504.16661 175.00017 495.8333 L 204.16687 466.66661 C 208.33352 462.49994 213.54163 460.41686 218.74996 460.41686 z M 481.25021 460.41686 C 486.45854 460.41686 491.66663 462.49994 495.8333 466.66661 L 525 495.8333 C 533.33332 504.16661 533.33332 516.66667 525 525 C 516.66667 533.33332 504.16661 533.33332 495.8333 525 L 466.66661 495.8333 C 458.33327 487.49998 458.33327 474.99992 466.66661 466.66661 C 470.83326 462.49994 476.04189 460.41686 481.25021 460.41686 z M 349.99983 516.66665 C 362.49979 516.66665 370.83318 525.00003 370.83318 537.50001 L 370.83318 579.16672 C 370.83318 591.66668 362.49979 600.00007 349.99983 600.00007 C 337.49985 600.00007 329.16647 591.66668 329.16647 579.16672 L 329.16647 537.50001 C 329.16647 525.00003 337.49985 516.66665 349.99983 516.66665 z " /></g></svg>
