<?xml version="1.0" encoding="UTF-8" standalone="no"?>
<!-- Uploaded to: SVG Repo, www.svgrepo.com, Generator: SVG Repo Mixer Tools -->

<svg
   width="700"
   height="700"
   viewBox="0 0 28 28"
   id="Camada_1"
   version="1.1"
   xml:space="preserve"
   sodipodi:docname="TwitterIcon.svg"
   inkscape:version="1.3 (0e150ed6c4, 2023-07-21)"
   xmlns:inkscape="http://www.inkscape.org/namespaces/inkscape"
   xmlns:sodipodi="http://sodipodi.sourceforge.net/DTD/sodipodi-0.dtd"
   xmlns="http://www.w3.org/2000/svg"
   xmlns:svg="http://www.w3.org/2000/svg"><defs
   id="defs4">&#10;&#10;&#10;&#10;&#10;&#10;&#10;&#10;&#10;	&#10;&#10;	&#10;</defs><sodipodi:namedview
   id="namedview4"
   pagecolor="#505050"
   bordercolor="#ffffff"
   borderopacity="1"
   inkscape:showpageshadow="0"
   inkscape:pageopacity="0"
   inkscape:pagecheckerboard="1"
   inkscape:deskcolor="#505050"
   inkscape:zoom="0.98375"
   inkscape:cx="389.32656"
   inkscape:cy="344.09149"
   inkscape:window-width="1920"
   inkscape:window-height="1001"
   inkscape:window-x="-9"
   inkscape:window-y="-9"
   inkscape:window-maximized="1"
   inkscape:current-layer="Camada_1"
   showguides="true" />&#10;&#10;<style
   type="text/css"
   id="style1">&#10;	.st0{fill:#FFFFFF;}&#10;</style>&#10;&#10;<path
   id="path1"
   style="fill:#000000"
   d="M 4 0 C 1.8000156 0 0 1.8000154 0 4 L 0 24 C 0 26.199986 1.8000156 28 4 28 L 24 28 C 26.199986 28 28 26.199986 28 24 L 28 4 C 28 1.8000154 26.199986 0 24 0 L 4 0 z M 17.97625 5.8763281 C 19.026828 5.9085239 20.065036 6.341347 20.841797 7.1672656 C 21.760748 6.9860758 22.641489 6.6489295 23.4475 6.1711719 C 23.141183 7.1209992 22.500138 7.9278522 21.64375 8.4405469 C 22.457074 8.344667 23.251677 8.126848 24 7.7945313 C 23.449117 8.6200437 22.755262 9.3391314 21.9525 9.9200781 C 21.96469 10.096393 21.964687 10.272684 21.964688 10.450625 C 21.964688 15.872519 17.83711 22.125625 10.289687 22.125625 L 10.289687 22.122422 C 8.0601547 22.125622 5.8769021 21.487034 4 20.282891 C 4.3241927 20.321891 4.650011 20.341378 4.9766406 20.342188 C 6.8242928 20.343787 8.6191508 19.723844 10.072734 18.582266 C 8.3168961 18.548956 6.7771793 17.404149 6.2392969 15.732812 C 6.8543683 15.851439 7.4881005 15.827049 8.0917969 15.662109 C 6.1775188 15.275353 4.8003125 13.593436 4.8003125 11.640156 L 4.8003125 11.588203 C 5.3706959 11.905895 6.0093188 12.082218 6.6625781 12.101719 C 4.8596139 10.896763 4.3038903 8.4981694 5.3926562 6.6228906 C 7.4759362 9.1863671 10.549686 10.744826 13.849297 10.909766 C 13.518604 9.4846194 13.970312 7.9912023 15.036328 6.989375 C 15.862653 6.2126132 16.925672 5.8441324 17.97625 5.8763281 z " />&#10;&#10;&#10;&#10;<g
   id="g17"
   transform="matrix(0.11037223,0,0,0.11037223,19.755824,4.6967326)"><g
     id="g2">&#10;</g><g
     id="g3">&#10;</g><g
     id="g4">&#10;</g><g
     id="g5">&#10;</g><g
     id="g6">&#10;</g><g
     id="g7">&#10;</g><g
     id="g8">&#10;</g><g
     id="g9">&#10;</g><g
     id="g10">&#10;</g><g
     id="g11">&#10;</g><g
     id="g12">&#10;</g><g
     id="g13">&#10;</g><g
     id="g14">&#10;</g><g
     id="g15">&#10;</g><g
     id="g16">&#10;</g></g></svg>
