<?xml version="1.0" encoding="UTF-8" standalone="no"?>
<!-- Uploaded to: SVG Repo, www.svgrepo.com, Generator: SVG Repo Mixer Tools -->

<svg
   width="700"
   height="700"
   viewBox="0 0 28 28"
   id="Camada_1"
   version="1.1"
   xml:space="preserve"
   sodipodi:docname="InstagramLogoWhite.svg"
   inkscape:version="1.3 (0e150ed6c4, 2023-07-21)"
   xmlns:inkscape="http://www.inkscape.org/namespaces/inkscape"
   xmlns:sodipodi="http://sodipodi.sourceforge.net/DTD/sodipodi-0.dtd"
   xmlns="http://www.w3.org/2000/svg"
   xmlns:svg="http://www.w3.org/2000/svg"><defs
   id="defs4">&#10;&#10;&#10;&#10;&#10;&#10;&#10;&#10;</defs><sodipodi:namedview
   id="namedview4"
   pagecolor="#505050"
   bordercolor="#ffffff"
   borderopacity="1"
   inkscape:showpageshadow="0"
   inkscape:pageopacity="0"
   inkscape:pagecheckerboard="1"
   inkscape:deskcolor="#505050"
   inkscape:zoom="0.98375"
   inkscape:cx="400.50826"
   inkscape:cy="397.96696"
   inkscape:window-width="1920"
   inkscape:window-height="1001"
   inkscape:window-x="-9"
   inkscape:window-y="-9"
   inkscape:window-maximized="1"
   inkscape:current-layer="Camada_1" />&#10;&#10;<style
   type="text/css"
   id="style1">&#10;	.st0{fill:#FFFFFF;}&#10;</style>&#10;&#10;<path
   id="path1"
   d="M 4,0 C 1.8000022,0 0,1.8000022 0,4 v 20 c 0,2.199998 1.8000022,4 4,4 h 20 c 2.199998,0 4,-1.800002 4,-4 V 4 C 28,1.8000022 26.199998,0 24,0 Z m 6,4 h 8 c 3.299994,0 6,2.7000066 6,5.9999996 V 18 c 0,3.299994 -2.700006,6 -6,6 H 10 C 6.7000066,24 4,21.299994 4,18 V 9.9999996 C 4,6.7000066 6.7000066,4 10,4 Z m 0,1.9 C 7.8000044,5.9 5.9,7.7000046 5.9,9.9999996 V 18 c 0,2.199996 1.8000046,4.1 4.1,4.1 h 8 c 2.199996,0 4.1,-1.800004 4.1,-4.1 V 9.9999996 C 22.1,7.8000044 20.299996,5.9 18,5.9 Z m 9.3,1.8 c 0.599998,0 1.1,0.500002 1.2,1.2 0,0.699998 -0.500002,1.2 -1.2,1.2 -0.699998,0 -1.2,-0.500002 -1.2,-1.2 0,-0.699998 0.600002,-1.2 1.2,-1.2 z M 14,9.2 c 2.799994,0 5,2.200006 4.9,4.9 0,2.699994 -2.200006,4.9 -4.9,4.9 -2.699994,0 -4.9,-2.200006 -4.9,-4.9 0,-2.699994 2.200006,-4.9 4.9,-4.9 z m 0,1.7 c -1.799996,0 -3.2,1.500004 -3.2,3.2 0,1.799996 1.500004,3.2 3.2,3.2 1.799996,0 3.2,-1.400004 3.2,-3.2 0,-1.799996 -1.500004,-3.2 -3.2,-3.2 z"
   style="fill:#ffffff;fill-opacity:1" />&#10;&#10;&#10;&#10;</svg>
