<?xml version="1.0" encoding="UTF-8" standalone="no"?>
<!-- Created with Inkscape (http://www.inkscape.org/) -->

<svg
   width="700mm"
   height="700mm"
   viewBox="0 0 700 700"
   version="1.1"
   id="svg1"
   xml:space="preserve"
   inkscape:version="1.3 (0e150ed6c4, 2023-07-21)"
   sodipodi:docname="MoonIcon.svg"
   xmlns:inkscape="http://www.inkscape.org/namespaces/inkscape"
   xmlns:sodipodi="http://sodipodi.sourceforge.net/DTD/sodipodi-0.dtd"
   xmlns="http://www.w3.org/2000/svg"
   xmlns:svg="http://www.w3.org/2000/svg"><sodipodi:namedview
     id="namedview1"
     pagecolor="#505050"
     bordercolor="#ffffff"
     borderopacity="1"
     inkscape:showpageshadow="0"
     inkscape:pageopacity="0"
     inkscape:pagecheckerboard="1"
     inkscape:deskcolor="#505050"
     inkscape:document-units="mm"
     inkscape:zoom="0.24787674"
     inkscape:cx="1234.4845"
     inkscape:cy="1422.0778"
     inkscape:window-width="1920"
     inkscape:window-height="1001"
     inkscape:window-x="-9"
     inkscape:window-y="-9"
     inkscape:window-maximized="1"
     inkscape:current-layer="layer1" /><defs
     id="defs1" /><g
     inkscape:label="Layer 1"
     inkscape:groupmode="layer"
     id="layer1"><path
       id="path1"
       style="fill:#ffffff;stroke-width:0.375725"
       d="M 349.99983 0 A 350 350 0 0 0 0 349.99983 A 350 350 0 0 0 349.99983 700.00017 A 350 350 0 0 0 700.00017 349.99983 A 350 350 0 0 0 349.99983 0 z M 361.75518 100.02697 A 241.76304 226.6565 0 0 1 426.42617 107.31903 C 419.6372 110.36386 409.90069 113.68501 403.10614 116.72879 A 216.49005 202.96269 0 0 0 569.59521 491.44545 A 156.45228 146.67637 0 0 0 600.00007 472.34946 A 248.55248 233.02171 0 0 1 473.36232 578.62101 A 265.67367 249.07308 0 1 1 266.72635 119.77305 A 241.76304 226.6565 0 0 1 361.75518 100.02697 z " /></g></svg>
