<?xml version="1.0" encoding="UTF-8" standalone="no"?>
<!-- Created with Inkscape (http://www.inkscape.org/) -->

<svg
   width="1280mm"
   height="720mm"
   viewBox="0 0 1280 720"
   version="1.1"
   id="svg1"
   sodipodi:docname="Bubbles.svg"
   xml:space="preserve"
   inkscape:version="1.3 (0e150ed6c4, 2023-07-21)"
   xmlns:inkscape="http://www.inkscape.org/namespaces/inkscape"
   xmlns:sodipodi="http://sodipodi.sourceforge.net/DTD/sodipodi-0.dtd"
   xmlns="http://www.w3.org/2000/svg"
   xmlns:svg="http://www.w3.org/2000/svg"><sodipodi:namedview
     id="namedview1"
     pagecolor="#505050"
     bordercolor="#ffffff"
     borderopacity="1"
     inkscape:showpageshadow="0"
     inkscape:pageopacity="0"
     inkscape:pagecheckerboard="1"
     inkscape:deskcolor="#505050"
     inkscape:document-units="mm"
     inkscape:zoom="0.12393837"
     inkscape:cx="3304.0615"
     inkscape:cy="1294.9985"
     inkscape:window-width="1920"
     inkscape:window-height="1001"
     inkscape:window-x="-9"
     inkscape:window-y="-9"
     inkscape:window-maximized="1"
     inkscape:current-layer="layer1" /><defs
     id="defs1" /><g
     inkscape:label="Layer 1"
     inkscape:groupmode="layer"
     id="layer1"><path
       id="rect1"
       style="fill:#0f1010;stroke-width:0.499796;fill-opacity:1"
       d="M 0 0 L 0 719.99998 L 1279.9999 719.99998 L 1279.9999 0 L 0 0 z M 643.04395 79.260278 A 74.709023 74.709023 0 0 1 717.75309 153.9689 A 74.709023 74.709023 0 0 1 643.04395 228.67803 A 74.709023 74.709023 0 0 1 568.33482 153.9689 A 74.709023 74.709023 0 0 1 643.04395 79.260278 z M 292.72839 166.90092 A 74.709023 74.709023 0 0 1 367.19412 235.86002 A 200 200 0 0 1 482.97104 198.38479 A 200 200 0 0 1 682.97072 398.38499 A 200 200 0 0 1 619.59215 543.88566 A 46.782719 46.782719 0 0 1 630.17032 542.55655 A 46.782719 46.782719 0 0 1 676.95299 589.33922 A 46.782719 46.782719 0 0 1 630.17032 636.1219 A 46.782719 46.782719 0 0 1 583.38765 589.33922 A 46.782719 46.782719 0 0 1 588.67931 567.95706 A 200 200 0 0 1 482.97104 598.38518 A 200 200 0 0 1 291.54189 455.99025 A 46.027946 46.027946 0 0 1 247.67739 488.24978 A 46.027946 46.027946 0 0 1 239.89854 487.51391 A 74.709023 74.709023 0 0 1 170.50329 535.04073 A 74.709023 74.709023 0 0 1 95.79467 460.33211 A 74.709023 74.709023 0 0 1 170.50329 385.62297 A 74.709023 74.709023 0 0 1 220.7395 405.03781 A 46.027946 46.027946 0 0 1 247.67739 396.19339 A 46.027946 46.027946 0 0 1 284.09429 414.0941 A 200 200 0 0 1 282.97084 398.38499 A 200 200 0 0 1 300.88293 315.73577 A 74.709023 74.709023 0 0 1 292.72839 316.31868 A 74.709023 74.709023 0 0 1 218.01925 241.61006 A 74.709023 74.709023 0 0 1 292.72839 166.90092 z M 883.10837 175.15158 A 46.782719 46.782719 0 0 1 929.89104 221.93426 A 46.782719 46.782719 0 0 1 883.10837 268.71693 A 46.782719 46.782719 0 0 1 836.3257 221.93426 A 46.782719 46.782719 0 0 1 883.10837 175.15158 z M 1020.4406 206.87988 A 46.782715 46.782715 0 0 1 1057.4233 225.03381 A 108.67344 108.67344 0 0 1 1088.4953 220.462 A 108.67344 108.67344 0 0 1 1197.1688 329.13547 A 108.67344 108.67344 0 0 1 1088.4953 437.80894 A 108.67344 108.67344 0 0 1 979.82185 329.13547 A 108.67344 108.67344 0 0 1 988.32055 287.5349 A 46.782715 46.782715 0 0 1 973.65736 253.66255 A 46.782715 46.782715 0 0 1 1020.4406 206.87988 z M 129.76262 228.65219 A 46.027946 46.027946 0 0 1 175.79082 274.68039 A 46.027946 46.027946 0 0 1 129.76262 320.70859 A 46.027946 46.027946 0 0 1 83.734941 274.68039 A 46.027946 46.027946 0 0 1 129.76262 228.65219 z M 762.23616 250.65653 A 46.782719 46.782719 0 0 1 809.01884 297.43921 A 46.782719 46.782719 0 0 1 762.23616 344.22188 A 46.782719 46.782719 0 0 1 752.09621 342.98837 A 32.442184 32.442184 0 0 1 722.43549 362.35514 A 32.442184 32.442184 0 0 1 689.99354 329.9132 A 32.442184 32.442184 0 0 1 715.51498 298.30221 A 46.782719 46.782719 0 0 1 715.45349 297.43921 A 46.782719 46.782719 0 0 1 762.23616 250.65653 z M 920.71021 333.56414 A 46.782719 46.782719 0 0 1 967.49288 380.34681 A 46.782719 46.782719 0 0 1 920.71021 427.12948 A 46.782719 46.782719 0 0 1 873.92753 380.34681 A 46.782719 46.782719 0 0 1 920.71021 333.56414 z M 833.30417 463.41926 A 46.782719 46.782719 0 0 1 880.08685 510.20193 A 46.782719 46.782719 0 0 1 833.30417 556.98461 A 46.782719 46.782719 0 0 1 786.5215 510.20193 A 46.782719 46.782719 0 0 1 833.30417 463.41926 z " /></g></svg>
