<?xml version="1.0" encoding="UTF-8" standalone="no"?>
<svg
   version="1.1"
   id="Layer_1"
   x="0px"
   y="0px"
   width="850"
   viewBox="0 0 850 700"
   enable-background="new 0 0 943 811"
   xml:space="preserve"
   sodipodi:docname="CubeSatLogoInverse.svg"
   inkscape:version="1.3 (0e150ed6c4, 2023-07-21)"
   height="700"
   xmlns:inkscape="http://www.inkscape.org/namespaces/inkscape"
   xmlns:sodipodi="http://sodipodi.sourceforge.net/DTD/sodipodi-0.dtd"
   xmlns="http://www.w3.org/2000/svg"
   xmlns:svg="http://www.w3.org/2000/svg"><defs
   id="defs57" /><sodipodi:namedview
   id="namedview57"
   pagecolor="#505050"
   bordercolor="#ffffff"
   borderopacity="1"
   inkscape:showpageshadow="0"
   inkscape:pageopacity="0"
   inkscape:pagecheckerboard="1"
   inkscape:deskcolor="#505050"
   inkscape:zoom="0.9704069"
   inkscape:cx="360.67345"
   inkscape:cy="399.31703"
   inkscape:window-width="1920"
   inkscape:window-height="1001"
   inkscape:window-x="-9"
   inkscape:window-y="-9"
   inkscape:window-maximized="1"
   inkscape:current-layer="Layer_1" />&#10;&#10;<path
   fill="#ec1c24"
   opacity="1"
   stroke="none"
   d="m 363.10787,444.6813 c 0.34344,4.71869 0.78369,9.43482 0.90646,14.15924 0.0152,0.58374 -1.681,1.76593 -2.54981,1.73395 -9.7351,-0.35724 -19.56256,-0.23974 -29.14984,-1.68158 -4.46191,-0.67108 -8.45437,-4.46356 -13.39538,-7.25702 0,55.06415 0,110.35156 0,165.63898 -0.50708,0.0802 -1.01416,0.1604 -1.52124,0.24066 C 286.97411,564.72458 256.55017,511.93356 226.00778,458.93704 169.142,481.08737 112.52471,503.1409 55.907421,525.19442 55.557217,524.70144 55.207012,524.20846 54.856804,523.71548 142.81981,413.55771 230.78282,303.39996 318.74584,193.24221 c 0.44818,0.22336 0.89639,0.44675 1.34457,0.67014 0,34.36005 0,68.72012 0,103.80112 4.40368,0 8.33368,0 12.72433,0.52576 0.46064,15.41213 0.43347,30.29867 0.49723,45.18478 0.007,1.73392 0.5176,3.46564 0.79473,5.19839 1.67093,2.75052 2.45655,1.87296 3.20539,-0.64694 3.60724,-12.13861 7.45416,-24.2081 10.90661,-36.3898 2.07709,-7.32873 7.45093,-12.69809 14.73691,-13.79916 5.17581,-0.7822 14.1937,5.22992 16.25592,10.86206 0.38825,1.06027 0.6753,2.15762 0.77735,3.98571 -0.11472,11.85196 0.002,22.95606 0.1192,34.06016 0.47867,1.19537 0.9573,2.39077 1.85492,4.63256 1.11203,-2.70166 2.009,-4.48895 2.5975,-6.37259 4.60523,-14.73993 9.0928,-29.51721 13.82001,-44.21756 0.40469,-1.25848 2.20865,-2.78726 3.48614,-2.91061 3.93384,-0.37991 7.92771,-0.13852 12.85138,-0.13852 -1.77023,6.0625 -3.27154,11.60751 -5.01004,17.07709 -4.09002,12.86773 -8.25039,25.71362 -12.46805,38.54013 -2.25595,6.86075 -8.24948,12.1055 -13.85989,12.37564 -7.06045,0.33997 -13.32138,-3.63184 -16.17975,-10.4632 -0.60882,-1.45504 -0.65341,-3.14614 -0.96222,-5.59686 0.009,-11.15784 0.0581,-21.4476 -0.01,-31.73654 -0.009,-1.34613 -0.61978,-2.68826 -0.95181,-4.03226 -1.00943,0.80359 -2.60849,1.41681 -2.93872,2.43967 -4.10355,12.71002 -7.86594,25.53119 -12.03928,38.21744 -3.26984,9.93973 -13.41098,14.13028 -21.94977,9.08612 -2.87747,-1.69986 -5.11334,-4.48572 -7.83682,-6.95124 0,14.15165 0,28.17679 0,41.89481 4.03845,-1.89709 8.06259,-3.78744 12.88968,-5.78732 10.43734,-0.0963 20.07175,-0.083 29.70614,-0.0698 0.29245,4.55335 0.58493,9.10669 0.0569,13.8508 -3.63846,0.17749 -6.45956,0.0722 -9.27371,0.16971 -6.21918,0.21542 -12.43485,0.5329 -18.65195,0.80872 -6.15463,2.34476 -6.60419,8.03192 -7.48312,13.26077 -1.12906,6.71686 -0.85801,13.41223 2.50344,19.57288 0.7222,1.32367 2.18406,2.24377 3.95142,3.73565 10.06317,0.45777 19.4801,0.5296 28.89701,0.60138 z"
   id="path2"
   style="fill:#ffffff;fill-opacity:1" />&#10;<path
   fill="#000058"
   opacity="1"
   stroke="none"
   d="m 489.33995,649.56332 c -8.7532,-0.31262 -17.50641,-0.62524 -27.03397,-1.12207 -2.25109,-0.33154 -3.72784,-0.47888 -5.20459,-0.62622 -1.42169,-0.0407 -2.84338,-0.0814 -4.86093,-0.31317 -1.44372,-0.34955 -2.29159,-0.50794 -3.13943,-0.66632 -1.03555,-0.0629 -2.07111,-0.12573 -3.78153,-0.36536 -1.52273,-0.32941 -2.37057,-0.48205 -3.21844,-0.63476 -1.11182,-0.0546 -2.22363,-0.10932 -3.90479,-0.36377 -1.4114,-0.35096 -2.25351,-0.50208 -3.09564,-0.6532 -2.53006,-0.26904 -5.06009,-0.53821 -7.59015,-0.80731 0.0278,-0.36957 0.0557,-0.73908 0.0835,-1.10858 15.04217,0 30.08435,0 45.66003,0.0629 1.34394,-0.0192 2.15436,-0.10132 2.96482,-0.18353 2.44879,-0.258 4.89761,-0.51599 7.94986,-0.77307 1.41897,-0.0751 2.23455,-0.15112 3.05011,-0.22705 1.1445,-0.27014 2.289,-0.54023 3.9934,-0.79114 1.37546,-0.057 2.19104,-0.13293 3.0066,-0.20886 1.14532,-0.27051 2.29062,-0.54102 4.03002,-0.77564 1.71839,-0.0511 2.84269,-0.13806 3.96695,-0.2251 0.72193,-0.0558 1.44385,-0.11157 2.80564,-0.25482 1.14731,-0.32416 1.65478,-0.56091 2.16223,-0.79767 11.72867,-2.85949 23.44122,-5.78735 35.18951,-8.56347 20.74713,-4.90259 39.53815,-14.53906 58.21228,-24.315 16.95917,-8.87812 32.48053,-20.00275 46.73127,-32.78882 7.75958,-6.9621 15.44628,-14.06183 22.59082,-21.64142 15.53283,-16.47852 29.52185,-34.1839 39.66674,-54.5835 6.34357,-12.7558 12.88898,-25.46747 18.24012,-38.64709 7.39111,-18.2038 12.12359,-37.30084 14.30194,-56.82282 1.72741,-15.48001 3.65539,-31.19046 2.77685,-46.64407 -1.08471,-19.07929 -4.276,-38.13297 -7.85309,-56.95132 -4.00994,-21.0954 -12.21533,-40.93461 -21.82153,-60.09846 -12.05359,-24.04629 -27.4096,-45.74523 -45.77081,-65.51484 C 643.48808,144.20692 613.08903,122.69466 578.56285,106.84785 550.88914,94.14617 521.9207,85.88129 491.60603,82.67529 479.58885,81.40438 467.5107,79.8592 455.46742,79.91712 c -12.87558,0.0619 -25.79248,1.45531 -38.60272,3.00168 -23.15814,2.79549 -45.7536,8.2637 -67.41498,16.96956 -30.70321,12.33983 -59.08038,28.50075 -84.40411,50.18861 -18.73062,16.04138 -34.48154,34.47931 -49.08878,54.10633 -0.26938,0.36193 -0.76364,0.55648 -2.14757,0.25094 2.42876,-4.33633 4.72571,-8.75296 7.30944,-12.9949 10.41266,-17.09552 23.18043,-32.32276 36.77015,-46.97444 27.28591,-29.41815 59.68023,-51.68338 95.84707,-68.48728 26.42788,-12.278972 54.14263,-20.976242 83.05673,-25.075712 13.59769,-1.92789 27.38342,-2.74289 41.11536,-3.46403 25.59081,-1.34391 50.77856,1.62843 75.90685,6.71047 30.72339,6.21367 59.57441,17.18889 87.05793,31.855782 19.51642,10.41517 37.10956,23.69137 54.24689,37.72906 18.29241,14.98387 32.9826,33.1444 47.53009,51.38126 7.70636,9.6607 13.73504,20.79825 19.57513,31.77249 6.69824,12.58685 13.15765,25.42084 18.25763,38.70901 7.00909,18.2627 11.91089,37.2099 14.96747,56.63559 2.77105,17.61142 4.19018,35.26313 3.81366,53.06125 -0.42548,20.11347 -3.4701,39.87632 -7.88697,59.48719 -4.57495,20.3125 -11.09021,39.9555 -20.26861,58.60253 -11.17261,22.69843 -23.49616,44.73407 -40.64893,63.66852 -6.91253,7.63062 -13.12964,15.94471 -20.4779,23.11255 -7.70264,7.51343 -16.34827,14.06604 -24.64215,20.96601 -17.60163,14.64324 -36.98621,26.50799 -57.58948,36.37695 -26.04321,12.47461 -53.10407,21.92853 -81.70075,26.5899 -9.65387,1.57355 -19.33087,3.0047 -29.67028,4.36298 -1.79404,-0.0564 -2.9151,0.0253 -4.03617,0.10687 -6.45962,0.3432 -12.91928,0.68646 -19.98367,0.89484 -1.40946,-0.0559 -2.21414,0.0232 -3.0188,0.10217 z"
   id="path3" />&#10;<path
   fill="#ec1d25"
   opacity="1"
   stroke="none"
   d="m 464.26137,297.849 c 4.03229,-0.0451 8.06457,-0.0902 12.55606,0.39029 0.45926,15.55593 0.43231,30.58639 0.4957,45.61642 0.007,1.74237 0.51565,3.4826 0.79171,5.22385 1.08512,-0.87928 2.79309,-1.55405 3.15924,-2.66935 3.74417,-11.4042 7.72202,-22.76416 10.70112,-34.37591 2.03826,-7.94464 6.37847,-12.76688 14.19332,-14.2023 6.33374,-1.16336 13.23868,4.00235 17.13926,12.93097 -0.002,10.58407 -0.0682,20.34063 0.0169,30.09585 0.0224,2.56757 0.51416,5.13105 0.79035,7.69638 2.21344,3.20121 2.54657,1.50052 3.30206,-1.01797 3.8371,-12.79151 7.87396,-25.52304 11.83203,-38.27829 1.1568,-3.72791 2.28442,-7.46488 3.32147,-10.85791 5.28821,0 10.44019,0 15.91919,0 -5.91778,18.62164 -11.43469,36.52624 -17.32281,54.30798 -3.58863,10.83722 -12.13874,15.55658 -21.13938,11.72028 -4.74188,-2.02118 -8.57162,-5.51526 -9.77844,-11.84229 0.007,-10.61044 0.0768,-20.38601 -0.005,-30.16025 -0.0215,-2.56979 -0.51331,-5.13568 -0.7891,-7.70333 -2.12152,-1.99424 -2.64569,-1.02994 -3.36416,1.35382 -3.79431,12.58899 -7.76123,25.12701 -11.77793,37.64755 -2.419,7.54031 -9.54699,12.55005 -16.66607,11.95194 -7.00834,-0.58884 -13.36316,-7.31238 -14.05967,-15.91608 0.41159,-2.56152 0.66895,-4.36975 0.67255,-6.17853 0.0302,-15.24432 0.0139,-30.48874 0.0116,-45.73312 z"
   id="path4"
   style="fill:#ffffff;fill-opacity:1" />&#10;<path
   fill="#ec1c24"
   opacity="1"
   stroke="none"
   d="m 500.51503,433.62423 c -3.08527,2.77735 -2.37305,6.29676 -1.26559,10.29663 11.71502,0.60584 22.78674,0.68287 33.85852,0.75983 0.29309,4.8858 0.58612,9.77161 0.0576,14.8501 -10.84448,0.2348 -20.86749,0.27692 -30.89047,0.31903 -8.53967,0.18939 -13.83438,-4.50397 -17.12289,-11.78436 -3.64518,-8.07007 -2.27219,-14.931 3.98111,-22.05167 -9.28241,-14.81171 -6.72742,-27.8725 7.28033,-33.27206 12.75885,-0.0873 24.72656,-0.0741 36.69431,-0.0609 0.29235,4.55362 0.58471,9.10727 0.0566,13.85181 -7.30475,0.17761 -13.79096,0.0619 -20.2725,0.18753 -4.23416,0.0821 -8.46151,0.5145 -12.69192,0.79001 -3.07437,3.17584 -2.6015,6.61182 -0.0468,10.55426 11.44987,0.47543 22.20221,0.54593 32.95459,0.61639 0.29236,4.55362 0.58472,9.10727 0.0566,13.85181 -9.23077,0.17758 -17.64187,0.10007 -26.05102,0.19455 -2.20255,0.0247 -4.39911,0.58353 -6.59842,0.89706 z"
   id="path5"
   style="fill:#ffffff;fill-opacity:1" />&#10;<path
   fill="#ec1c24"
   opacity="1"
   stroke="none"
   d="m 466.34013,392.59887 c 10.33579,3.90189 16.04886,15.61618 11.22113,25.08301 -4.12274,8.08457 -0.53003,12.96515 0.7789,19.32327 2.29032,11.12555 -6.3045,23.44959 -18.11566,22.71479 -10.90329,0.045 -20.92651,0.0872 -30.9497,0.12939 -0.23813,-4.94024 -0.47623,-9.88049 0.10769,-15.01416 10.23578,-0.18011 19.64978,-0.12408 29.06281,-0.19665 1.53598,-0.0118 3.06756,-0.59174 4.60119,-0.90906 1.0185,-3.26874 2.76029,-6.59186 -1.22302,-10.12219 -11.18774,-0.65219 -21.86822,-0.70505 -32.54867,-0.75788 -0.23771,-4.6076 -0.47544,-9.21524 0.1083,-14.0152 10.10315,-0.17935 19.38516,-0.12625 28.6662,-0.19747 1.35111,-0.0104 2.69766,-0.61493 4.04633,-0.94449 2.61807,-3.01743 3.55291,-6.1001 -0.0268,-10.04053 -11.19085,-0.73254 -21.99246,-0.76743 -32.794,-0.80231 -0.23774,-4.6076 -0.47544,-9.21524 0.1083,-14.0152 12.86664,-0.20669 24.91181,-0.221 36.957,-0.23532 z"
   id="path6"
   style="fill:#ffffff;fill-opacity:1" />&#10;<path
   fill="#ec1c24"
   opacity="1"
   stroke="none"
   d="m 543.27513,459.84988 c -0.2381,-4.94055 -0.47626,-9.88116 0.10773,-15.01526 8.97204,-0.18023 17.12304,-0.0887 25.27154,-0.19378 3.07776,-0.0397 6.14966,-0.53431 9.22425,-0.82154 0.46374,-1.72064 1.17376,-3.41815 1.33771,-5.16687 0.30096,-3.21045 -1.29065,-4.96985 -4.61976,-4.96728 -4.31268,0.003 -8.63287,-0.16825 -12.93658,0.0278 -13.57623,0.61865 -19.92871,-6.44257 -22.09198,-16.93149 -1.70935,-8.28805 0.67895,-19.78146 13.80029,-24.12204 12.46417,-0.001 24.10187,0.01 35.7395,0.0213 0.29236,4.55368 0.58472,9.10736 0.0566,13.85196 -7.31219,0.17764 -13.8059,0.0619 -20.29492,0.18759 -4.24163,0.0822 -8.4765,0.51453 -12.71435,0.79001 -0.6651,2.58124 -2.12738,5.26493 -1.81208,7.72028 0.49768,3.87518 4.08246,3.39523 7.10444,3.49093 6.40783,0.20307 12.99676,-0.21777 19.16656,1.16068 8.26459,1.84643 12.51489,8.61575 12.69244,17.11517 0.14002,6.70099 0.055,13.12158 -5.74072,18.04877 -3.41138,2.90015 -6.83673,5.07336 -12.34143,4.67505 -11.23657,0.0443 -21.59289,0.0865 -31.94928,0.12872 z"
   id="path7"
   style="fill:#ffffff;fill-opacity:1" />&#10;<path
   fill="#ec1d25"
   opacity="1"
   stroke="none"
   d="m 645.007,415.01938 c 4.76014,15.07458 9.31403,29.79937 14.18109,45.53698 -4.64446,0 -8.88232,0.28723 -13.03155,-0.19232 -1.10333,-0.12744 -2.32806,-2.4798 -2.83032,-4.0271 -5.17182,-15.93139 -10.20661,-31.90726 -15.56342,-48.76401 -4.3418,13.87436 -8.41931,26.87729 -12.47131,39.88816 -0.4834,1.55218 -0.73932,3.17694 -1.25098,4.71826 -2.9447,8.86987 -7.78699,10.97632 -17.53631,7.34491 3.71618,-11.8711 7.40203,-23.78003 11.17846,-35.66013 2.41516,-7.59759 5.12647,-15.10446 7.39521,-22.74398 1.47631,-4.97138 4.53363,-7.81559 9.56182,-8.39948 6.26435,-0.72742 12.13227,0.0433 14.90448,6.76825 2.03742,4.94266 3.52436,10.11221 5.46283,15.53046 z"
   id="path8"
   style="fill:#ffffff;fill-opacity:1" />&#10;<path
   fill="#ec1c24"
   opacity="1"
   stroke="none"
   d="m 421.44102,437.68222 c -0.76178,14.4068 -12.09249,22.57629 -25.34274,22.82593 -14.0737,0.26525 -25.35498,-10.344 -25.53265,-23.71753 0.40622,-15.16571 0.55127,-29.5535 0.69629,-43.94132 3.69998,-0.0452 7.39996,-0.0905 11.55661,0.38993 0.45669,12.79608 0.42431,25.06662 0.49356,37.3366 0.01,1.73294 0.51529,3.46314 0.79135,5.19458 1.0213,5.20801 3.84592,8.52527 9.41775,8.89997 5.69181,0.38269 10.85959,-0.40088 14.07212,-6.95752 0.53946,-15.35804 0.60989,-30.11099 0.68033,-44.86393 4.02786,-0.0452 8.05572,-0.0903 12.54257,0.39026 0.51428,15.16483 0.56955,29.80393 0.62481,44.44303 z"
   id="path9"
   style="fill:#ffffff;fill-opacity:1" />&#10;<path
   fill="#ec1c24"
   opacity="1"
   stroke="none"
   d="m 691.10783,392.6821 c 0.29261,4.55297 0.58521,9.10595 0.0614,13.84957 -4.72796,0.19065 -8.63958,0.19065 -12.72821,0.19065 0,18.13342 0,35.54675 0,52.96002 -3.68914,0.30682 -7.39666,0.91235 -11.05291,0.68634 -0.79859,-0.0494 -2.00153,-3.06042 -2.02082,-4.71912 -0.16241,-13.96093 -0.0927,-27.92449 -0.0928,-41.88729 0,-1.80561 0,-3.61118 0,-6.08271 -3.56482,0 -6.82831,-0.0873 -10.08472,0.0271 -2.69738,0.0948 -4.05926,-0.89273 -3.92883,-3.73834 0.16705,-3.64282 0.20489,-7.2916 1.12048,-11.13101 13.45691,-0.18054 26.09174,-0.16785 38.72644,-0.15518 z"
   id="path10"
   style="fill:#ffffff;fill-opacity:1" />&#10;<path
   fill="#ec1c24"
   opacity="1"
   stroke="none"
   d="m 443.44109,364.68231 c -3.95191,0.22925 -7.90384,0.4585 -12.06189,-0.13248 -0.18866,-14.08954 -0.16455,-27.35882 -0.15567,-40.62814 0.009,-13.00385 0.002,-13.00385 -13.04892,-12.18344 -0.20685,-4.56836 -0.4137,-9.13672 0.20215,-13.89905 13.45883,-0.18164 26.09493,-0.16934 38.73107,-0.15704 0.29264,4.55297 0.58524,9.10592 0.0605,13.84954 -5.06097,0.19068 -9.30469,0.19068 -13.72729,0.19068 0,18.13309 0,35.54651 0,52.95993 z"
   id="path11"
   style="fill:#ffffff;fill-opacity:1" />&#10;&#10;&#10;&#10;<path
   fill="#ec4a4f"
   opacity="1"
   stroke="none"
   d="m 463.86583,298.01474 c 0.39783,15.07864 0.41409,30.32306 0.38391,45.56738 -0.004,1.80878 -0.26096,3.61701 -0.60748,5.78986 -0.19519,-16.82096 -0.1836,-34.0062 0.22357,-51.35724 z"
   id="path15"
   style="fill:#ffffff;fill-opacity:1" />&#10;&#10;&#10;&#10;&#10;&#10;&#10;&#10;&#10;&#10;&#10;&#10;&#10;&#10;&#10;&#10;&#10;&#10;&#10;&#10;&#10;&#10;&#10;&#10;&#10;&#10;&#10;&#10;&#10;&#10;&#10;&#10;&#10;&#10;&#10;&#10;&#10;&#10;&#10;&#10;&#10;&#10;&#10;</svg>
