<?xml version="1.0" encoding="UTF-8" standalone="no"?>
<svg
   version="1.1"
   id="Layer_1"
   x="0px"
   y="0px"
   width="850"
   viewBox="0 0 850 700"
   enable-background="new 0 0 943 811"
   xml:space="preserve"
   sodipodi:docname="CubeSatLogo.svg"
   inkscape:version="1.3 (0e150ed6c4, 2023-07-21)"
   height="700"
   xmlns:inkscape="http://www.inkscape.org/namespaces/inkscape"
   xmlns:sodipodi="http://sodipodi.sourceforge.net/DTD/sodipodi-0.dtd"
   xmlns="http://www.w3.org/2000/svg"
   xmlns:svg="http://www.w3.org/2000/svg"><defs
   id="defs57" /><sodipodi:namedview
   id="namedview57"
   pagecolor="#505050"
   bordercolor="#ffffff"
   borderopacity="1"
   inkscape:showpageshadow="0"
   inkscape:pageopacity="0"
   inkscape:pagecheckerboard="1"
   inkscape:deskcolor="#505050"
   inkscape:zoom="5.4894504"
   inkscape:cx="458.33368"
   inkscape:cy="300.84979"
   inkscape:window-width="1920"
   inkscape:window-height="1001"
   inkscape:window-x="-9"
   inkscape:window-y="-9"
   inkscape:window-maximized="1"
   inkscape:current-layer="Layer_1" />&#10;&#10;<path
   fill="#ec1c24"
   opacity="1"
   stroke="none"
   d="m 363.10787,444.6813 c 0.34344,4.71869 0.78369,9.43482 0.90646,14.15924 0.0152,0.58374 -1.681,1.76593 -2.54981,1.73395 -9.7351,-0.35724 -19.56256,-0.23974 -29.14984,-1.68158 -4.46191,-0.67108 -8.45437,-4.46356 -13.39538,-7.25702 0,55.06415 0,110.35156 0,165.63898 -0.50708,0.0802 -1.01416,0.1604 -1.52124,0.24066 C 286.97411,564.72458 256.55017,511.93356 226.00778,458.93704 169.142,481.08737 112.52471,503.1409 55.907421,525.19442 55.557217,524.70144 55.207012,524.20846 54.856804,523.71548 142.81981,413.55771 230.78282,303.39996 318.74584,193.24221 c 0.44818,0.22336 0.89639,0.44675 1.34457,0.67014 0,34.36005 0,68.72012 0,103.80112 4.40368,0 8.33368,0 12.72433,0.52576 0.46064,15.41213 0.43347,30.29867 0.49723,45.18478 0.007,1.73392 0.5176,3.46564 0.79473,5.19839 1.67093,2.75052 2.45655,1.87296 3.20539,-0.64694 3.60724,-12.13861 7.45416,-24.2081 10.90661,-36.3898 2.07709,-7.32873 7.45093,-12.69809 14.73691,-13.79916 5.17581,-0.7822 14.1937,5.22992 16.25592,10.86206 0.38825,1.06027 0.6753,2.15762 0.77735,3.98571 -0.11472,11.85196 0.002,22.95606 0.1192,34.06016 0.47867,1.19537 0.9573,2.39077 1.85492,4.63256 1.11203,-2.70166 2.009,-4.48895 2.5975,-6.37259 4.60523,-14.73993 9.0928,-29.51721 13.82001,-44.21756 0.40469,-1.25848 2.20865,-2.78726 3.48614,-2.91061 3.93384,-0.37991 7.92771,-0.13852 12.85138,-0.13852 -1.77023,6.0625 -3.27154,11.60751 -5.01004,17.07709 -4.09002,12.86773 -8.25039,25.71362 -12.46805,38.54013 -2.25595,6.86075 -8.24948,12.1055 -13.85989,12.37564 -7.06045,0.33997 -13.32138,-3.63184 -16.17975,-10.4632 -0.60882,-1.45504 -0.65341,-3.14614 -0.96222,-5.59686 0.009,-11.15784 0.0581,-21.4476 -0.01,-31.73654 -0.009,-1.34613 -0.61978,-2.68826 -0.95181,-4.03226 -1.00943,0.80359 -2.60849,1.41681 -2.93872,2.43967 -4.10355,12.71002 -7.86594,25.53119 -12.03928,38.21744 -3.26984,9.93973 -13.41098,14.13028 -21.94977,9.08612 -2.87747,-1.69986 -5.11334,-4.48572 -7.83682,-6.95124 0,14.15165 0,28.17679 0,41.89481 4.03845,-1.89709 8.06259,-3.78744 12.88968,-5.78732 10.43734,-0.0963 20.07175,-0.083 29.70614,-0.0698 0.29245,4.55335 0.58493,9.10669 0.0569,13.8508 -3.63846,0.17749 -6.45956,0.0722 -9.27371,0.16971 -6.21918,0.21542 -12.43485,0.5329 -18.65195,0.80872 -6.15463,2.34476 -6.60419,8.03192 -7.48312,13.26077 -1.12906,6.71686 -0.85801,13.41223 2.50344,19.57288 0.7222,1.32367 2.18406,2.24377 3.95142,3.73565 10.06317,0.45777 19.4801,0.5296 28.89701,0.60138 z"
   id="path2" />&#10;&#10;<path
   fill="#ec1d25"
   opacity="1"
   stroke="none"
   d="m 463.71487,297.94008 13.01148,-0.15621 c 0.45926,15.55593 0.43231,30.58639 0.4957,45.61642 0.007,1.74237 0.60673,3.93802 0.88279,5.67927 1.08512,-0.87928 2.79309,-1.55405 3.15924,-2.66935 3.74417,-11.4042 7.72202,-22.76416 10.70112,-34.37591 2.03826,-7.94464 6.37847,-12.76688 14.19332,-14.2023 6.33374,-1.16336 12.75011,2.95623 16.55961,12.1581 1.54642,8.21589 0.51145,21.1135 0.59655,30.86872 0.0224,2.56757 0.51416,5.13105 0.79035,7.69638 2.21344,3.20121 2.52718,1.49462 3.30206,-1.01797 l 15.1535,-49.1362 h 15.91919 c -5.91778,18.62164 -11.43469,36.52624 -17.32281,54.30798 -3.58863,10.83722 -12.13874,15.55658 -21.13938,11.72028 -4.74188,-2.02118 -8.57162,-5.51526 -9.77844,-11.84229 0.007,-10.61044 0.0768,-20.38601 -0.005,-30.16025 -0.0215,-2.56979 -0.51331,-5.13568 -0.7891,-7.70333 -2.12152,-1.99424 -2.64569,-1.02994 -3.36416,1.35382 -3.79431,12.58899 -7.76123,25.12701 -11.77793,37.64755 -2.419,7.54031 -9.54699,12.55005 -16.66607,11.95194 -7.00834,-0.58884 -13.36316,-7.31238 -14.05967,-15.91608 z"
   id="path4"
   sodipodi:nodetypes="cccccsscscsccsscscssscc" />&#10;<path
   fill="#ec1c24"
   opacity="1"
   stroke="none"
   d="m 500.51503,433.62423 c -3.08527,2.77735 -2.37305,6.29676 -1.26559,10.29663 11.71502,0.60584 22.78674,0.68287 33.85852,0.75983 0.29309,4.8858 0.58612,9.77161 0.0576,14.8501 -10.84448,0.2348 -20.86749,0.27692 -30.89047,0.31903 -8.53967,0.18939 -13.83438,-4.50397 -17.12289,-11.78436 -3.64518,-8.07007 -2.27219,-14.931 3.98111,-22.05167 -9.28241,-14.81171 -6.72742,-27.8725 7.28033,-33.27206 12.75885,-0.0873 24.72656,-0.0741 36.69431,-0.0609 0.29235,4.55362 0.58471,9.10727 0.0566,13.85181 -7.30475,0.17761 -13.79096,0.0619 -20.2725,0.18753 -4.23416,0.0821 -8.46151,0.5145 -12.69192,0.79001 -3.07437,3.17584 -2.6015,6.61182 -0.0468,10.55426 11.44987,0.47543 22.20221,0.54593 32.95459,0.61639 0.29236,4.55362 0.58472,9.10727 0.0566,13.85181 -9.23077,0.17758 -17.64187,0.10007 -26.05102,0.19455 -2.20255,0.0247 -4.39911,0.58353 -6.59842,0.89706 z"
   id="path5" />&#10;<path
   fill="#ec1c24"
   opacity="1"
   stroke="none"
   d="m 466.34013,392.59887 c 10.33579,3.90189 16.04886,15.61618 11.22113,25.08301 -4.12274,8.08457 -0.53003,12.96515 0.7789,19.32327 2.29032,11.12555 -6.3045,23.44959 -18.11566,22.71479 -10.90329,0.045 -20.92651,0.0872 -30.9497,0.12939 -0.23813,-4.94024 -0.47623,-9.88049 0.10769,-15.01416 10.23578,-0.18011 19.64978,-0.12408 29.06281,-0.19665 1.53598,-0.0118 3.06756,-0.59174 4.60119,-0.90906 1.0185,-3.26874 2.76029,-6.59186 -1.22302,-10.12219 -11.18774,-0.65219 -21.86822,-0.70505 -32.54867,-0.75788 -0.23771,-4.6076 -0.47544,-9.21524 0.1083,-14.0152 10.10315,-0.17935 19.38516,-0.12625 28.6662,-0.19747 1.35111,-0.0104 2.69766,-0.61493 4.04633,-0.94449 2.61807,-3.01743 3.55291,-6.1001 -0.0268,-10.04053 -11.19085,-0.73254 -21.99246,-0.76743 -32.794,-0.80231 -0.23774,-4.6076 -0.47544,-9.21524 0.1083,-14.0152 12.86664,-0.20669 24.91181,-0.221 36.957,-0.23532 z"
   id="path6" />&#10;<path
   fill="#ec1c24"
   opacity="1"
   stroke="none"
   d="m 543.27513,459.84988 c -0.2381,-4.94055 -0.47626,-9.88116 0.10773,-15.01526 8.97204,-0.18023 17.12304,-0.0887 25.27154,-0.19378 3.07776,-0.0397 6.14966,-0.53431 9.22425,-0.82154 0.46374,-1.72064 1.17376,-3.41815 1.33771,-5.16687 0.30096,-3.21045 -1.29065,-4.96985 -4.61976,-4.96728 -4.31268,0.003 -8.63287,-0.16825 -12.93658,0.0278 -13.57623,0.61865 -19.92871,-6.44257 -22.09198,-16.93149 -1.70935,-8.28805 0.67895,-19.78146 13.80029,-24.12204 12.46417,-0.001 24.10187,0.01 35.7395,0.0213 0.29236,4.55368 0.58472,9.10736 0.0566,13.85196 -7.31219,0.17764 -13.8059,0.0619 -20.29492,0.18759 -4.24163,0.0822 -8.4765,0.51453 -12.71435,0.79001 -0.6651,2.58124 -2.12738,5.26493 -1.81208,7.72028 0.49768,3.87518 4.08246,3.39523 7.10444,3.49093 6.40783,0.20307 12.99676,-0.21777 19.16656,1.16068 8.26459,1.84643 12.51489,8.61575 12.69244,17.11517 0.14002,6.70099 0.055,13.12158 -5.74072,18.04877 -3.41138,2.90015 -6.83673,5.07336 -12.34143,4.67505 -11.23657,0.0443 -21.59289,0.0865 -31.94928,0.12872 z"
   id="path7" />&#10;<path
   fill="#ec1d25"
   opacity="1"
   stroke="none"
   d="m 645.007,415.01938 c 4.76014,15.07458 9.31403,29.79937 14.18109,45.53698 -4.64446,0 -8.88232,0.28723 -13.03155,-0.19232 -1.10333,-0.12744 -2.32806,-2.4798 -2.83032,-4.0271 -5.17182,-15.93139 -10.20661,-31.90726 -15.56342,-48.76401 -4.3418,13.87436 -8.41931,26.87729 -12.47131,39.88816 -0.4834,1.55218 -0.73932,3.17694 -1.25098,4.71826 -2.9447,8.86987 -7.78699,10.97632 -17.53631,7.34491 3.71618,-11.8711 7.40203,-23.78003 11.17846,-35.66013 2.41516,-7.59759 5.12647,-15.10446 7.39521,-22.74398 1.47631,-4.97138 4.53363,-7.81559 9.56182,-8.39948 6.26435,-0.72742 12.13227,0.0433 14.90448,6.76825 2.03742,4.94266 3.52436,10.11221 5.46283,15.53046 z"
   id="path8" />&#10;<path
   fill="#ec1c24"
   opacity="1"
   stroke="none"
   d="m 421.44102,437.68222 c -0.76178,14.4068 -12.09249,22.57629 -25.34274,22.82593 -14.0737,0.26525 -25.35498,-10.344 -25.53265,-23.71753 0.40622,-15.16571 0.55127,-29.5535 0.69629,-43.94132 3.69998,-0.0452 7.39996,-0.0905 11.55661,0.38993 0.45669,12.79608 0.42431,25.06662 0.49356,37.3366 0.01,1.73294 0.51529,3.46314 0.79135,5.19458 1.0213,5.20801 3.84592,8.52527 9.41775,8.89997 5.69181,0.38269 10.85959,-0.40088 14.07212,-6.95752 0.53946,-15.35804 0.60989,-30.11099 0.68033,-44.86393 4.02786,-0.0452 8.05572,-0.0903 12.54257,0.39026 0.51428,15.16483 0.56955,29.80393 0.62481,44.44303 z"
   id="path9" />&#10;&#10;<path
   fill="#ec1c24"
   opacity="1"
   stroke="none"
   d="m 443.44109,364.68231 c 3.95855,0 -12.06189,-0.13248 -12.06189,-0.13248 l 0.39083,-52.74229 -13.59542,-0.0693 0.20215,-13.89905 38.73107,-0.15704 0.0605,13.84954 -13.72729,0.19068 v 52.95993 z"
   id="path11"
   sodipodi:nodetypes="sccccccccs" /><path
   fill="#ec1c24"
   opacity="1"
   stroke="none"
   d="m 676.51848,459.67616 c 3.95855,0 -12.06189,-0.13248 -12.06189,-0.13248 l 0.39083,-52.74229 -13.59542,-0.0693 0.20215,-13.89905 38.73107,-0.15704 0.0605,13.84954 -13.72729,0.19068 v 52.95993 z"
   id="path11-2"
   sodipodi:nodetypes="sccccccccs" />&#10;&#10;&#10;&#10;&#10;&#10;&#10;&#10;&#10;&#10;&#10;&#10;&#10;&#10;&#10;&#10;&#10;&#10;&#10;&#10;&#10;&#10;&#10;&#10;&#10;&#10;&#10;&#10;&#10;&#10;&#10;&#10;&#10;&#10;&#10;&#10;&#10;&#10;&#10;&#10;&#10;&#10;&#10;&#10;&#10;&#10;&#10;<path
   id="path12"
   style="fill:#000058;stroke-width:1.09735;fill-opacity:1"
   d="m 484.953,48.457 a 311.20966,301.224 0 0 0 -300.1,222.9668 289.40317,280.51053 0 0 1 271.5,-185.4043 289.40317,280.51053 0 0 1 289.4,280.51172 289.40317,280.51053 0 0 1 -289.4,280.50978 289.40317,280.51053 0 0 1 -29.1,-2.0137 311.20966,301.224 0 0 0 57.7,5.8789 311.20966,301.224 0 0 0 311.2,-301.22459 A 311.20966,301.224 0 0 0 484.953,48.457 Z" /></svg>
