<?xml version="1.0" encoding="UTF-8" standalone="no"?>
<!-- Created with Inkscape (http://www.inkscape.org/) -->

<svg
   width="88.036003mm"
   height="9mm"
   viewBox="0 0 88.036003 9"
   version="1.1"
   id="svg1"
   xml:space="preserve"
   sodipodi:docname="drawing.svg"
   inkscape:version="1.3 (0e150ed6c4, 2023-07-21)"
   xmlns:inkscape="http://www.inkscape.org/namespaces/inkscape"
   xmlns:sodipodi="http://sodipodi.sourceforge.net/DTD/sodipodi-0.dtd"
   xmlns="http://www.w3.org/2000/svg"
   xmlns:svg="http://www.w3.org/2000/svg"><sodipodi:namedview
     id="namedview1"
     pagecolor="#505050"
     bordercolor="#ffffff"
     borderopacity="1"
     inkscape:showpageshadow="0"
     inkscape:pageopacity="0"
     inkscape:pagecheckerboard="1"
     inkscape:deskcolor="#505050"
     inkscape:document-units="mm"
     inkscape:zoom="1.4022026"
     inkscape:cx="168.66322"
     inkscape:cy="133.7182"
     inkscape:window-width="1920"
     inkscape:window-height="1001"
     inkscape:window-x="-9"
     inkscape:window-y="-9"
     inkscape:window-maximized="1"
     inkscape:current-layer="layer1" /><defs
     id="defs1" /><g
     inkscape:label="Layer 1"
     inkscape:groupmode="layer"
     id="layer1"><path
       d="M 0.083,0 H 2.0829727 V 6.9999272 L 3.6592081,1.4532349 A 1.999979,1.999979 0 0 1 7.5829212,1.9999794 V 6.9999272 L 9.5721507,0 H 11.651379 L 9.5068978,7.5466707 A 1.999979,1.999979 0 0 1 5.5831942,6.9999272 V 1.9999794 L 4.0069588,7.5466707 A 1.999979,1.999979 0 0 1 0.08324567,6.9999272 Z"
       fill="#ff0000"
       id="path1"
       style="fill:#f9f9f9;stroke-width:0.249997" /><path
       d="m 19.846887,0 h 1.999972 v 6.9999274 l 1.576236,-5.5466925 a 1.999979,1.999979 0 0 1 3.923713,0.5467448 V 6.9999274 L 29.336037,0 h 2.079229 L 29.270785,7.546671 A 1.999979,1.999979 0 0 1 25.347081,6.9999274 V 1.9999797 L 23.770846,7.546671 A 1.999979,1.999979 0 0 1 19.847132,6.9999274 Z"
       fill="#ff0000"
       id="path1-30"
       style="fill:#f9f9f9;stroke-width:0.249997" /><path
       d="M 12.098937,0 H 19.09886 V 1.9999818 H 16.598889 V 8.999905 H 14.598907 V 1.9999818 h -2.49997 z"
       fill="#ff0000"
       id="path1-7"
       style="fill:#f9f9f9;stroke-width:0.249997" /><path
       d="m 81.118941,0 h 6.999928 V 1.9999821 H 85.618894 V 8.9999062 H 83.618912 V 1.9999821 h -2.499971 z"
       fill="#ff0000"
       id="path1-7-7"
       style="fill:#f9f9f9;stroke-width:0.249997" /><path
       d="m 36.76994,0 h 4.249949 V 1.9999822 H 36.76994 A 0.74999212,0.74999212 0 0 0 36.019948,2.7499743 V 6.2499409 A 0.74999212,0.74999212 0 0 0 36.76994,6.999933 h 4.249949 V 8.9999057 H 36.76994 A 2.7499711,2.7499711 0 0 1 34.019966,6.2499409 V 2.7499743 A 2.7499711,2.7499711 0 0 1 36.76994,0 Z"
       fill="#ff0000"
       id="path1-4"
       style="fill:#f9f9f9;stroke-width:0.249997" /><path
       d="m 41.484455,0 h 1.999982 v 6.2499307 a 0.74999212,0.74999212 0 0 0 0.749992,0.7499921 h 1.499984 A 0.74999212,0.74999212 0 0 0 46.484405,6.2499307 V 0 h 1.999982 V 6.2499307 A 2.7499711,2.7499711 0 0 1 45.734413,8.9999049 H 44.234429 A 2.7499711,2.7499711 0 0 1 41.484455,6.2499307 Z"
       fill="#ff0000"
       id="path1-48"
       style="fill:#f9f9f9;stroke-width:0.249997" /><path
       d="m 49.09992,0 h 4.249949 a 2.7499711,2.7499711 0 0 1 2.121229,4.499953 2.7499711,2.7499711 0 0 1 -2.121229,4.4999527 H 49.09992 V 6.9999236 h 4.249949 a 0.74999215,0.74999215 0 0 0 0,-1.4999843 H 49.09992 V 3.4999664 h 4.249949 a 0.74999215,0.74999215 0 0 0 0,-1.4999843 H 49.09992 Z"
       fill="#ff0000"
       id="path1-3"
       style="fill:#f9f9f9;stroke-width:0.249997" /><path
       d="m 59.516251,0 h 4.249959 v 1.9999821 h -4.249959 a 0.74999215,0.74999215 0 0 0 0,1.4999843 h 4.249959 v 1.9999727 h -4.249959 a 0.74999215,0.74999215 0 0 0 0,1.4999843 H 63.76621 V 8.9999055 H 59.516251 A 2.7499711,2.7499711 0 0 1 57.395023,4.4999528 2.7499711,2.7499711 0 0 1 59.516251,0 Z"
       fill="#ff0000"
       id="path1-44"
       style="fill:#f9f9f9;stroke-width:0.249997" /><path
       d="m 73.38401,0 h -6.24994 a 2.7499711,2.7499711 0 0 0 0,5.4999391 h 3.499966 a 0.74999212,0.74999212 0 0 1 0,1.4999842 h -6.249931 v 1.9999783 h 6.249931 a 2.7499742,2.7499742 0 0 0 0,-5.4999447 H 67.13407 a 0.74999212,0.74999212 0 0 1 0,-1.4999842 h 6.24994 z"
       fill="#ff0000"
       id="path1-8"
       style="fill:#f9f9f9;stroke-width:0.249997" /><path
       d="m 73.416937,9 2.606978,-7.6454219 a 1.999979,1.999979 0 0 1 3.78596,0 L 82.416843,9 h -2.11298 L 77.91689,2.0000768 75.529917,9 Z"
       fill="#ff0000"
       id="path1-81"
       style="fill:#f9f9f9;stroke-width:0.249997" /></g></svg>
