<?xml version="1.0" encoding="UTF-8" standalone="no"?>
<!-- Created with Inkscape (http://www.inkscape.org/) -->

<svg
   version="1.1"
   id="svg1"
   width="680"
   height="680"
   viewBox="0 0 680 680"
   sodipodi:docname="TwitterLogo.svg"
   inkscape:version="1.3 (0e150ed6c4, 2023-07-21)"
   xml:space="preserve"
   xmlns:inkscape="http://www.inkscape.org/namespaces/inkscape"
   xmlns:sodipodi="http://sodipodi.sourceforge.net/DTD/sodipodi-0.dtd"
   xmlns="http://www.w3.org/2000/svg"
   xmlns:svg="http://www.w3.org/2000/svg"><defs
     id="defs1" /><sodipodi:namedview
     id="namedview1"
     pagecolor="#505050"
     bordercolor="#ffffff"
     borderopacity="1"
     inkscape:showpageshadow="0"
     inkscape:pageopacity="0"
     inkscape:pagecheckerboard="1"
     inkscape:deskcolor="#505050"
     inkscape:zoom="1"
     inkscape:cx="423"
     inkscape:cy="372.5"
     inkscape:window-width="1920"
     inkscape:window-height="1001"
     inkscape:window-x="-9"
     inkscape:window-y="-9"
     inkscape:window-maximized="1"
     inkscape:current-layer="g1" /><g
     inkscape:groupmode="layer"
     inkscape:label="Image"
     id="g1"><path
       id="path2"
       style="fill:#000000;fill-opacity:1;stroke-width:1.11123"
       d="M 75 0 A 75 75 0 0 0 0 75 L 0 605 A 75 75 0 0 0 75 680 L 605 680 A 75 75 0 0 0 680 605 L 680 75 A 75 75 0 0 0 605 0 L 75 0 z M 443.85938 120.58008 C 475.71934 120.58008 504.54213 134.03588 524.72461 155.56836 C 549.96958 150.59586 573.68459 141.36967 595.08203 128.67969 C 586.82458 154.55466 569.25162 176.26822 546.36914 189.9707 C 568.77912 187.29321 590.13252 181.35319 610 172.5332 C 595.15001 194.74068 576.36178 214.24728 554.7168 229.88477 C 561.73679 385.69711 445.52491 559.41992 239.83008 559.41992 C 177.28014 559.41992 119.02745 541.08286 70 509.65039 C 128.76994 516.58038 187.45044 500.26746 234.02539 463.75 C 185.51544 462.85 144.61038 430.83222 130.52539 386.82227 C 147.89537 390.15226 164.97197 389.16164 180.56445 384.93164 C 127.28451 374.24415 90.497892 326.23065 91.712891 274.9082 C 106.63038 283.21069 123.73025 288.18258 141.86523 288.76758 C 92.545284 255.78261 78.572685 190.64401 107.59766 140.85156 C 162.2501 207.879 243.88033 251.9793 335.92773 256.5918 C 319.77275 187.31437 372.33191 120.58008 443.85938 120.58008 z " /></g></svg>
