<!DOCTYPE svg>
<svg xmlns="http://www.w3.org/2000/svg">
    <path d="M0,0 l8,0 0,28 6.305,-22.187 a8 8 0 0 1 15.695,2.187 l0,20 7.957,-28 8.317,0 -8.578,30.187 a8 8 0 0 1 -15.695,-2.187 l0,-20 -6.305,22.187 a8 8 0 0 1 -15.695,-2.187 Z" fill="red" />
    <path d="M42,0 l28,0 0,8 -10,0 0,28 -8,0 0,-28 -10,0 Z" fill="red" />
    <path d="M70,0 l8,0 0,28 6.305,-22.187 a8 8 0 0 1 15.695,2.187 l0,20 7.957,-28 8.317,0 -8.578,30.187 a8 8 0 0 1 -15.695,-2.187 l0,-20 -6.305,22.187 a8 8 0 0 1 -15.695,-2.187 Z" fill="red" />

</svg>