<!DOCTYPE svg>
<svg xmlns="http://www.w3.org/2000/svg" width="1280" height="720">
    <!-- W -->
    <!-- <path d="M0,0 l0,350 a100 100 0 0 0 196.593,25.882 l73.922,-275.882 0,250 a100 100 0 0 0 196.593,25.882 l100.717,-375.882 -103.528,0 -93.782,350 0,-250 a100 100 0 0 0 -196.593,-25.882 l-73.922,275.882 0,-350 -100,0 Z" fill="red" /> -->

    <!-- T -->
    <!-- <path d="M0,0 l300,0 0,100 -100,0 0,350 -100,0 0,-350 -100,0 Z" fill="red" /> -->

    <rect width="36" height="36" fill="yellow" />

    <!-- A -->
    <!-- <path d="M0,36 l10.428,-30.582 a8 8 0 0 1 15.144,0 l10.428,30.582 -8.452,0 -9.548,-28 -9.548,28 Z" fill="red" /> -->

    <!-- B -->
    <!-- <path d="M0,0 l17,0 a11 11 0 0 1 8.485,18 11 11 0 0 1 -8.485,18 l-17,0 0,-8 17,0 a3 3 0 0 0 0,-6 l-17,0 0,-8 17,0 a3 3 0 0 0 0,-6 l-17,0 Z" fill="red" /> -->

    <!-- C -->
    <!-- <path d="M11,0 l17,0 0,8 -17,0 a3 3 0 0 0 -3,3 l0,14 a3 3 0 0 0 3,3 l17,0 0,8 -17,0 a11 11 0 0 1 -11,-11 l0,-14 a11 11 0 0 1 11,-11 Z" fill="red" /> -->

    <!-- D -->
    <!-- <path d="M0,0 l17,0 a11 11 0 0 1 11,11 l0,14 a11 11 0 0 1 -11,11 l-17,0 Z m8,8 l0,20 9,0 a3 3 0 0 0 3,-3 l0,-14 a3 3 0 0 0 -3,-3 Z" fill="red" /> -->

    <!-- E -->
    <!-- <path d="M11,0 l17,0 0,8 -17,0 a3 3 0 0 0 0,6 l17,0 0,8 -17,0 a3 3 0 0 0 0,6 l17,0 0,8 -17,0 a11 11 0 0 1 -8.485,-18 11 11 0 0 1 8.485,-18 Z" fill="red" /> -->

    <!-- F -->
    <!-- TODO: Maybe fix this since it's technically off -->
    <!-- <path d="M11,0 l17,0 0,8 -14,0 a6 6 0 0 0 -6,6 l20,0 0,8 -20,0 0,14 -8,0 0,-25 a11 11 0 0 1 11,-11 Z" fill="red" /> -->

    <!-- G -->
    <!-- <path d="M11,0 l25,0 0,8 -25,0 a3 3 0 0 0 -3,3 l0,14 a3 3 0 0 0 3,3 l14,0 a3 3 0 0 0 0,-6 l-7,0 0,-8 7,0 a11 11 0 0 1 0,22 l-14,0 a11 11 0 0 1 -11,-11 l0,-14 a11 11 0 0 1 11,-11 Z" fill="red" /> -->

    <!-- H -->
    <!-- <path d="M0,0 l8,0 0,14 12,0 0,-14 8,0 0,36 -8,0 0,-14 -12,0 0,14 -8,0 Z" fill="red" /> -->

    <!-- I -->
    <!-- <path d="M0,0 l8,0 0,36 -8,0 Z" fill="red" /> -->

    <!-- J -->
    <!-- <path d="M20,0 l8,0 0,25 a11 11 0 0 1 -11,11 l-17,0 0,-8 17,0 a3 3 0 0 0 3,-3 Z" fill="red" /> -->

    <!-- K -->
    <!-- TODO: Maybe fix this -->
    <!-- <path d="M0,0 l8,0 0,11.707 9.638,-11.707 10.362,0 -14.819,18 14.819,18 -10.362,0 -9.638,-11.707 0,11.707 -8,0 Z" fill="red" /> -->

    <!-- TODO: Make the inside curve better -->
    <!-- L -->
    <!-- <path d="M0,0 l8,0 0,25 a3 3 0 0 0 3,3 l17,0 0,8 -17,0 a11 11 0 0 1 -11,-11 Z" fill="red" /> -->

    <!-- M -->

    <!-- N -->

    <!-- O -->
    <!-- <path d="M11,0 l14,0 a11 11 0 0 1 11,11 l0,14 a11 11 0 0 1 -11,11 l-14,0 a11 11 0 0 1 -11,-11 l0,-14 a11 11 0 0 1 11,-11 Z m0,8 a3 3 0 0 0 -3,3 l0,14 a3 3 0 0 0 3,3 l14,0 a3 3 0 0 0 3,-3 l0,-14 a3 3 0 0 0 -3,-3 Z" fill="red" /> -->

    <!-- P -->
    <!-- <path d="M0,0 17,0 a11 11 0 0 1 0,22 l-9,0 0,14 -8,0 0,-22 17,0 a3 3 0 0 0 0,-6 l-22,0 Z" fill="red" /> -->

    <!-- Q -->

    <!-- R -->
    <!-- TODO: Redo! -->
    <!-- <path d="M0,0 17,0 a11 11 0 0 1 0.111,21.999 l10.889,14.001 -10.135,0 -17.111,-22 16.246,0 a3 3 0 0 0 0,-6 l-17,0 Z" fill="red" /> -->

    <!-- S -->
    <!-- <path d="M11,0 l17,0 0,8 -17,0 a3 3 0 0 0 0,6 l17,0 0,8 -17,0 a3 3 0 0 0 0,6 l17,0 0,8 -17,0 a11 11 0 0 1 -8.485,-18 11 11 0 0 1 8.485,-18 Z" fill="red" /> -->
    <!-- <path d="M36,0 l-25,0 a11 11 0 0 0 0,22 l14,0 a3 3 0 0 1 0,6 l-25,0 0,8 25,0 a11 11 0 0 0 0,-22 l-14,0 a3 3 0 0 1 0,-6 l25,0 Z" fill="red" /> -->

    <!-- T -->
    <!-- <path d="M0,0 l28,0 0,8 -10,0 0,28 -8,0 0,-28 -10,0 Z" fill="red" /> -->

    <!-- U -->
    <!-- <path d="M0,0 l8,0 0,25 a3 3 0 0 0 3,3 l6,0 a3 3 0 0 0 3,-3 l0,-25 8,0 0,25 a11 11 0 0 1 -11,11 l-6,0 a11 11 0 0 1 -11,-11 Z" fill="red" /> -->

    <!-- V -->
    <!-- <path d="M0,36 l10.428,-30.582 a8 8 0 0 1 15.144,0 l10.428,30.582 -8.452,0 -9.548,-28 -9.548,28 Z" fill="red" /> -->
    <!-- <path d="M0,0 l8.452,0 9.548,28 9.548,-28 8.452,0 -10.428,30.582 a8 8 0 0 1 -15.144,0 Z" fill="red" /> -->

    <!-- W -->
    <path d="M0,0 l8,0 0,28 6.305,-22.187 a8 8 0 0 1 15.695,2.187 l0,20 7.957,-28 8.317,0 -8.578,30.187 a8 8 0 0 1 -15.695,-2.187 l0,-20 -6.305,22.187 a8 8 0 0 1 -15.695,-2.187 Z" fill="red" />

    <!-- X -->
    <!-- <path d="M0,0 l9.883,0 8.117,11.188 8.117,-11.188 9.883,0 -13.058,18 13.058,18 -9.883,0 -8.117,-11.188 -8.117,11.188 -9.883,0 13.058,-18 Z" fill="red" /> -->

    <!-- Y -->
    <!-- <path d="M0,0 l9.883,0 8.117,11.188 8.117,-11.188 9.883,0 -14,19.298 0,16.702 -8,0 0,-16.702 Z" fill="red" /> -->

    <!-- Z -->
    <!-- <path d="M0,0 l32,0 a4 4 0 0 1 2.828,6.828 l-21.172,21.172 22.343,0 0,8 -32,0 a4 4 0 0 1 -2.828,-6.828 l21.172,-21.172 -22.343,0 Z" fill="red" /> -->
</svg>