<?xml version="1.0" encoding="UTF-8" standalone="no"?>
<!-- Uploaded to: SVG Repo, www.svgrepo.com, Generator: SVG Repo Mixer Tools -->

<svg
   width="700"
   height="700"
   viewBox="0 0 28 28"
   id="Camada_1"
   version="1.1"
   xml:space="preserve"
   sodipodi:docname="MailIconWhite.svg"
   inkscape:version="1.3 (0e150ed6c4, 2023-07-21)"
   xmlns:inkscape="http://www.inkscape.org/namespaces/inkscape"
   xmlns:sodipodi="http://sodipodi.sourceforge.net/DTD/sodipodi-0.dtd"
   xmlns="http://www.w3.org/2000/svg"
   xmlns:svg="http://www.w3.org/2000/svg"><defs
   id="defs4">&#10;&#10;&#10;&#10;&#10;&#10;&#10;&#10;&#10;	&#10;</defs><sodipodi:namedview
   id="namedview4"
   pagecolor="#505050"
   bordercolor="#ffffff"
   borderopacity="1"
   inkscape:showpageshadow="0"
   inkscape:pageopacity="0"
   inkscape:pagecheckerboard="1"
   inkscape:deskcolor="#505050"
   inkscape:zoom="0.98375"
   inkscape:cx="389.32656"
   inkscape:cy="344.09149"
   inkscape:window-width="1920"
   inkscape:window-height="1001"
   inkscape:window-x="-9"
   inkscape:window-y="-9"
   inkscape:window-maximized="1"
   inkscape:current-layer="Camada_1"
   showguides="true" />&#10;&#10;<style
   type="text/css"
   id="style1">&#10;	.st0{fill:#FFFFFF;}&#10;</style>&#10;&#10;<path
   id="path1"
   style="fill:#ffffff;fill-opacity:1"
   d="M 4 0 C 1.8000068 0 0 1.8000066 0 4 L 0 24 C 0 26.199994 1.8000068 28 4 28 L 24 28 C 26.199994 28 28 26.199994 28 24 L 28 4 C 28 1.8000066 26.199994 0 24 0 L 4 0 z M 6.4429688 7.2111719 L 21.557031 7.2111719 C 22.904282 7.2111719 24.000266 8.3071232 24 9.654375 L 24 18.345938 C 24 19.692923 22.904016 20.788906 21.557031 20.788906 L 6.4429688 20.788906 C 5.0959841 20.788906 4 19.692923 4 18.345938 L 4 9.6541406 C 4 8.3071546 5.0959841 7.2111719 6.4429688 7.2111719 z M 7.6366406 8.8049219 L 14 12.904609 L 20.363359 8.8049219 L 7.6366406 8.8049219 z M 5.59375 9.6995312 L 5.59375 18.346172 C 5.59375 18.814204 5.9746722 19.195391 6.4429688 19.195391 L 21.557031 19.195391 L 21.557109 19.195391 C 22.025406 19.195391 22.406532 18.814235 22.406797 18.345938 L 22.406797 9.6995312 L 14.492266 14.788906 C 14.481636 14.795546 14.470187 14.800072 14.459297 14.806172 C 14.447867 14.812552 14.436221 14.818731 14.424531 14.824531 C 14.362906 14.856141 14.299941 14.881629 14.235391 14.898359 C 14.228751 14.900259 14.222069 14.901056 14.215469 14.902656 C 14.144547 14.919656 14.072814 14.929766 14.001094 14.929766 L 14 14.929766 L 13.999453 14.929766 C 13.927735 14.929766 13.855998 14.919386 13.785078 14.902656 C 13.778438 14.901056 13.771756 14.900259 13.765156 14.898359 C 13.700609 14.881629 13.637454 14.856141 13.576094 14.824531 C 13.564404 14.818681 13.55267 14.812572 13.54125 14.806172 C 13.53036 14.800062 13.518989 14.795506 13.508359 14.788906 L 5.59375 9.6995312 z " />&#10;&#10;&#10;&#10;</svg>
